<svg width="155" height="51" viewBox="0 0 155 51" fill="none" xmlns="http://www.w3.org/2000/svg">
<path d="M15.5461 33.0847C16.2527 32.2301 17.5431 32.108 18.4034 32.81C20.1239 34.2139 23.1348 35.862 25.8999 35.8315C27.8662 35.8315 29.6482 35.2516 30.8156 34.3971C31.9831 33.5425 32.5054 32.5658 32.5054 31.5892C32.5054 31.0703 32.3825 30.7346 32.1368 30.3378C31.891 29.941 31.553 29.5443 30.9693 29.178C29.8325 28.4455 27.8969 27.7741 25.5927 27.3468H25.5005C23.6571 26.9805 21.9366 26.5227 20.4311 25.8208C18.9257 25.1188 17.6353 24.1421 16.775 22.7687C16.1913 21.8225 15.884 20.7238 15.884 19.564C15.884 17.2139 17.2359 15.1996 19.0178 13.8567C20.8612 12.5443 23.2577 11.7812 25.8077 11.7812C29.5867 11.7812 32.3825 13.6125 34.3796 14.8944C35.2706 15.5048 35.5471 16.7561 34.9326 17.6717C34.3488 18.6179 33.0892 18.8926 32.1368 18.2516C30.1397 16.9392 28.2041 15.7489 25.8077 15.7489C24.0258 15.7489 22.4589 16.2983 21.4143 17.0918C20.4004 17.8549 19.9703 18.7094 19.9703 19.5335C19.9703 19.9913 20.0624 20.327 20.2468 20.6322C20.4311 20.9374 20.7998 21.3037 21.3221 21.6394C22.336 22.3414 24.1179 22.9823 26.2378 23.3486H26.33C28.327 23.7453 30.1705 24.2337 31.7681 24.9967C33.3657 25.7902 34.8097 26.7974 35.7007 28.2319C36.2844 29.178 36.6531 30.3378 36.6531 31.5586C36.6531 34.0613 35.2398 36.1978 33.2735 37.6017C31.3379 39.0057 28.7879 39.8297 25.9921 39.8297C21.7522 39.7992 18.1576 37.6933 15.9148 35.9231C14.9931 35.2211 14.8702 33.9392 15.5461 33.0847Z" fill="white"/>
<path d="M26.2379 0C32.444 0 38.2507 2.16697 42.6442 5.52424C43.0743 5.89048 43.2279 6.47038 42.9207 6.8061C42.4906 7.23339 41.9068 7.29443 41.5382 6.95871C37.3905 3.72352 32.106 1.86176 26.2379 1.86176C12.8731 1.86176 1.87413 12.4219 1.87413 25.4237C1.87413 38.5781 12.8731 49.1382 26.2379 49.1382C32.0139 49.1382 37.2983 47.2765 41.5074 44.0413C41.9376 43.7666 42.5213 43.7666 42.89 44.1939C43.2587 44.5601 43.1051 45.14 42.6749 45.4758C38.1278 48.8636 32.4747 51 26.2686 51C11.7978 50.9084 0 39.4937 0 25.4237C0 11.5063 11.7978 0 26.2379 0Z" fill="white"/>
<path d="M57.0535 27.8961V34.5801C57.0535 35.5568 56.224 36.3809 55.2408 36.3809C54.3498 36.3809 53.6739 35.7399 53.4588 34.9159C52.1685 35.8315 50.6016 36.3809 48.9118 36.3809C46.5768 36.3809 44.549 35.4347 43.0743 33.9087C41.5996 32.3521 40.7393 30.2462 40.7393 27.9266C40.7393 25.5766 41.5996 23.4706 43.0743 21.9446C44.549 20.388 46.5768 19.3809 48.9118 19.3809C50.6323 19.3809 52.1685 19.9608 53.4588 20.8764C53.6739 20.0218 54.3498 19.3809 55.2408 19.3809C56.224 19.3809 57.0535 20.2049 57.0535 21.2121V27.8961ZM53.4281 27.8961C53.4281 26.4617 52.9058 25.2408 52.0763 24.3862C51.2468 23.4706 50.0793 22.9823 48.881 22.9823C47.6521 22.9823 46.4846 23.4706 45.6858 24.3862C44.8563 25.2408 44.3954 26.4617 44.3954 27.8961C44.3954 29.3001 44.887 30.5209 45.6858 31.406C46.4846 32.2606 47.6521 32.7489 48.881 32.7489C50.0793 32.7489 51.2468 32.2606 52.0763 31.406C52.9058 30.5209 53.4281 29.3001 53.4281 27.8961Z" fill="white"/>
<path d="M74.3201 21.1511C74.3201 22.0972 73.5213 22.9518 72.5074 22.9518C71.7086 22.9518 71.0327 23.1654 70.4489 23.5927C69.8037 23.9895 69.2814 24.5694 68.882 25.2408C68.0525 26.3396 67.6531 27.6214 67.4687 28.1098V34.5801C67.4687 35.5568 66.6085 36.3809 65.5946 36.3809C64.6115 36.3809 63.7819 35.5568 63.7819 34.5801V21.1511C63.7819 20.1744 64.6115 19.3809 65.5946 19.3809C66.6085 19.3809 67.4687 20.1744 67.4687 21.1511V21.3952C67.6838 21.1511 67.9603 20.8764 68.1754 20.7238C69.3121 19.9608 70.7869 19.3503 72.5074 19.4114C73.552 19.3809 74.3201 20.1744 74.3201 21.1511Z" fill="white"/>
<path d="M92.4469 27.8961V34.5801C92.4469 35.5568 91.6174 36.3809 90.6342 36.3809C89.7433 36.3809 89.0673 35.7399 88.8523 34.9159C87.5619 35.8315 85.995 36.3809 84.3052 36.3809C81.9702 36.3809 79.9425 35.4347 78.4677 33.9087C76.993 32.3521 76.1328 30.2462 76.1328 27.9266C76.1328 25.5766 76.993 23.4706 78.4677 21.9446C79.9425 20.388 81.9702 19.3809 84.3052 19.3809C86.0257 19.3809 87.5619 19.9608 88.8523 20.8764C89.0673 20.0218 89.7433 19.3809 90.6342 19.3809C91.6174 19.3809 92.4469 20.2049 92.4469 21.2121V27.8961ZM88.8216 27.8961C88.8216 26.4617 88.2993 25.2408 87.4697 24.3862C86.6402 23.4706 85.4727 22.9823 84.2745 22.9823C83.0455 22.9823 81.878 23.4706 81.0792 24.3862C80.2497 25.2408 79.7888 26.4617 79.7888 27.8961C79.7888 29.3001 80.2804 30.5209 81.0792 31.406C81.878 32.2606 83.0455 32.7489 84.2745 32.7489C85.4727 32.7489 86.6402 32.2606 87.4697 31.406C88.2993 30.5209 88.8216 29.3001 88.8216 27.8961Z" fill="white"/>
<path d="M113.124 26.4304V34.5794C113.124 35.5561 112.325 36.3801 111.342 36.3801C110.389 36.3801 109.529 35.5561 109.529 34.5794V26.4304C109.529 24.5381 107.932 22.9816 105.965 22.9816C104.06 22.9816 102.524 24.5076 102.524 26.4304V34.5794C102.524 34.671 102.524 34.7931 102.463 34.9151C102.278 35.7392 101.541 36.3801 100.65 36.3801C99.6362 36.3801 98.8374 35.5561 98.8374 34.5794V26.4304V21.1503C98.8374 20.1737 99.6362 19.3496 100.65 19.3496C101.357 19.3496 102.033 19.7464 102.34 20.4178C103.354 19.7769 104.644 19.3496 105.965 19.3496C109.929 19.3496 113.124 22.5848 113.124 26.4304Z" fill="white"/>
<path d="M118.654 27.8649C118.685 23.2257 122.31 19.3496 127.011 19.3496C131.466 19.3496 134.999 22.6458 135.276 27.2545C135.276 27.285 135.276 27.346 135.276 27.4376C135.276 27.4986 135.276 27.6817 135.245 27.7428C135.153 28.5668 134.415 29.1162 133.463 29.1162H122.556C122.74 29.9098 123.109 30.7949 123.723 31.3747C124.43 32.1988 125.813 32.8092 127.011 32.9008C128.24 32.9923 129.715 32.6871 130.575 32.0462C131.281 31.2832 132.695 31.4053 133.156 31.9546C133.586 32.443 133.954 33.4502 133.156 34.1826C131.466 35.7087 129.469 36.4412 127.011 36.4412C122.31 36.3191 118.685 32.4735 118.654 27.8649ZM122.372 26.1862H132.08C131.742 24.8128 129.991 22.829 127.011 22.5848C124.092 22.7069 122.648 24.7823 122.372 26.1862Z" fill="white"/>
<path d="M155 26.4304V34.5794C155 35.5561 154.201 36.3801 153.218 36.3801C152.266 36.3801 151.405 35.5561 151.405 34.5794V26.4304C151.405 24.5381 149.808 22.9816 147.841 22.9816C145.937 22.9816 144.4 24.5076 144.4 26.4304V34.5794C144.4 34.671 144.4 34.7931 144.339 34.9151C144.155 35.7392 143.417 36.3801 142.526 36.3801C141.512 36.3801 140.714 35.5561 140.714 34.5794V26.4304V21.1503C140.714 20.1737 141.512 19.3496 142.526 19.3496C143.233 19.3496 143.909 19.7464 144.216 20.4178C145.23 19.7769 146.52 19.3496 147.841 19.3496C151.805 19.3496 155 22.5848 155 26.4304Z" fill="white"/>
</svg>
